<svg width="20" height="20" viewBox="0 0 20 20" fill="none" xmlns="http://www.w3.org/2000/svg">
<path d="M19.6875 10C19.6875 15.3516 15.3516 19.6875 10 19.6875C4.64844 19.6875 0.3125 15.3516 0.3125 10C0.3125 4.64844 4.64844 0.3125 10 0.3125C15.3516 0.3125 19.6875 4.64844 19.6875 10ZM10.6641 14.4492L15.957 9.15625C16.3242 8.78906 16.3242 8.19531 15.957 7.83203L15.293 7.16797C14.9258 6.80078 14.332 6.80078 13.9688 7.16797L10 11.1367L6.03125 7.16797C5.66406 6.80078 5.07031 6.80078 4.70703 7.16797L4.04297 7.83203C3.67578 8.19922 3.67578 8.79297 4.04297 9.15625L9.33594 14.4492C9.70312 14.8164 10.2969 14.8164 10.6641 14.4492Z" fill="#829D94"/>
</svg>
