<svg width="42" height="31" viewBox="0 0 42 31" fill="none" xmlns="http://www.w3.org/2000/svg">
<path d="M40.6348 10.3816C40.9458 10.1394 41.4081 10.366 41.4081 10.7488V26.7253C41.4081 28.7957 39.6942 30.4753 37.5816 30.4753H4.41833C2.30576 30.4753 0.591797 28.7957 0.591797 26.7253V10.7566C0.591797 10.366 1.0462 10.1472 1.36507 10.3894C3.15079 11.7488 5.51846 13.4753 13.6498 19.2644C15.3319 20.4675 18.1699 22.9988 21 22.9832C23.8459 23.0066 26.7398 20.4207 28.3581 19.2644C36.4894 13.4753 38.8491 11.741 40.6348 10.3816ZM21 20.4753C22.8494 20.5066 25.5121 18.1941 26.8514 17.241C37.4301 9.71753 38.2353 9.06128 40.6747 7.18628C41.1371 6.83472 41.4081 6.28784 41.4081 5.70972V4.22534C41.4081 2.15503 39.6942 0.475342 37.5816 0.475342H4.41833C2.30576 0.475342 0.591797 2.15503 0.591797 4.22534V5.70972C0.591797 6.28784 0.862843 6.8269 1.32522 7.18628C3.76463 9.05347 4.5698 9.71753 15.1486 17.241C16.4878 18.1941 19.1505 20.5066 21 20.4753Z" fill="white"/>
</svg>
