<svg width="21" height="21" viewBox="0 0 21 21" fill="none" xmlns="http://www.w3.org/2000/svg">
<g clip-path="url(#clip0)">
<path d="M10.3125 1.25342C4.96094 1.25342 0.625 5.58936 0.625 10.9409C0.625 16.2925 4.96094 20.6284 10.3125 20.6284C15.6641 20.6284 20 16.2925 20 10.9409C20 5.58936 15.6641 1.25342 10.3125 1.25342ZM15.0625 13.4839C15.2461 13.6675 15.2461 13.9644 15.0625 14.1479L13.5156 15.6909C13.332 15.8745 13.0352 15.8745 12.8516 15.6909L10.3125 13.1284L7.76953 15.6909C7.58594 15.8745 7.28906 15.8745 7.10547 15.6909L5.5625 14.144C5.37891 13.9604 5.37891 13.6636 5.5625 13.48L8.125 10.9409L5.5625 8.39795C5.37891 8.21436 5.37891 7.91748 5.5625 7.73389L7.10938 6.18701C7.29297 6.00342 7.58984 6.00342 7.77344 6.18701L10.3125 8.75342L12.8555 6.19092C13.0391 6.00732 13.3359 6.00732 13.5195 6.19092L15.0664 7.73779C15.25 7.92139 15.25 8.21826 15.0664 8.40186L12.5 10.9409L15.0625 13.4839Z" fill="white"/>
</g>
<defs>
<clipPath id="clip0">
<rect width="20" height="20" fill="white" transform="translate(0.3125 0.940918)"/>
</clipPath>
</defs>
</svg>
