<svg width="22" height="22" viewBox="0 0 22 22" fill="none" xmlns="http://www.w3.org/2000/svg">
<path d="M10.6514 12.405C13.9121 12.405 16.5576 9.75952 16.5576 6.49878C16.5576 3.23804 13.9121 0.592529 10.6514 0.592529C7.39062 0.592529 4.74512 3.23804 4.74512 6.49878C4.74512 9.75952 7.39062 12.405 10.6514 12.405ZM15.9014 13.7175H13.6414C12.7309 14.1359 11.7178 14.3738 10.6514 14.3738C9.58496 14.3738 8.57598 14.1359 7.66133 13.7175H5.40137C2.50156 13.7175 0.151367 16.0677 0.151367 18.9675V19.6238C0.151367 20.7107 1.0332 21.5925 2.12012 21.5925H19.1826C20.2695 21.5925 21.1514 20.7107 21.1514 19.6238V18.9675C21.1514 16.0677 18.8012 13.7175 15.9014 13.7175Z" fill="black"/>
</svg>
